# xmcd CD database file
#
# Track frame offsets:
#	150
#	21886
#	44950
#	66942
#	88742
#	112286
#	135110
#	153262
#	173414
#	190302
#	211142
#	229662
#	248342
#	269006
#	290774
#	308974
#	336518
#
# Disc length: 4741 seconds
#
# Revision: 0
# Processed by: cddbd v1.5.2PL0 Copyright (c) Steve Scherf et al.
# Submitted via: CDex 1.51
#
DISCID=fc128311
DTITLE=EXTENDED MIXES - EXTENDED MIXES
DYEAR=2010
DGENRE=Country
TTITLE0=Big Love Tracy Byrd
TTITLE1=Bubba Hyde Diamond Rio
TTITLE2=Whose Bed Have Your Boots Been Under Shania Twain
TTITLE3=Bubba Shot The Jukebox Mark Chesnutt
TTITLE4=I Break For Brunettes Rhet Akins
TTITLE5=Third Rock From The Sun Joe Diffie
TTITLE6=Old Enough To Know Better Wade Hayes
TTITLE7=Slave To The Habit Shane Minor
TTITLE8=You Keep Me Hanging On Reba
TTITLE9=Six Days On The Road Sawyer Brown
TTITLE10=Hillbilly Rap Neal McCoy
TTITLE11=Working For The Weekend Ken Mellons
TTITLE12=Life'sa Dance John Michael Montgomery
TTITLE13=Love Get's Me Everytime
TTITLE14=Too Much Fun Daryl Singletary
TTITLE15=Boot Scootin Boogie 2 Brooks and Dunn
TTITLE16=Watermelon Crawl Tracy Byrd
EXTD=YEAR: 2010
EXTT0=
EXTT1=
EXTT2=
EXTT3=
EXTT4=
EXTT5=
EXTT6=
EXTT7=
EXTT8=
EXTT9=
EXTT10=
EXTT11=
EXTT12=
EXTT13=
EXTT14=
EXTT15=
EXTT16=
PLAYORDER=
